<?xml version="1.0" encoding="utf-8"?>
<!-- Generator: Adobe Illustrator 20.0.0, SVG Export Plug-In . SVG Version: 6.00 Build 0)  -->
<svg version="1.1" id="Layer_1" xmlns="http://www.w3.org/2000/svg" xmlns:xlink="http://www.w3.org/1999/xlink" x="0px" y="0px"
	 viewBox="0 0 32 32" style="enable-background:new 0 0 32 32;" xml:space="preserve">
<style type="text/css">
	.st0{fill:url(#SVGID_1_);}
	.st1{fill:url(#SVGID_2_);}
</style>
<linearGradient id="SVGID_1_" gradientUnits="userSpaceOnUse" x1="16.1762" y1="31.5833" x2="16.1762" y2="0.4167">
	<stop  offset="3.271244e-04" style="stop-color:#04748E"/>
	<stop  offset="1" style="stop-color:#07DDE8"/>
</linearGradient>
<path class="st0" d="M20.7,14.6c0-4,3.1-7.3,6.9-7.6c-2-3.9-6.1-6.5-10.7-6.5c-0.9,0-1.7,0.1-2.5,0.3c-5.5,1.1-9.7,6-9.7,11.9
	c0,0.5,0,1,0.1,1.5c0.2,2,1,3.8,2,5.4c3.4,6.5,10.1,12.2,10.1,12.2s5.2-4.4,8.8-9.8C22.8,20.7,20.7,17.9,20.7,14.6z"/>
<linearGradient id="SVGID_2_" gradientUnits="userSpaceOnUse" x1="20.6813" y1="13.1787" x2="26.8221" y2="14.3835">
	<stop  offset="3.271244e-04" style="stop-color:#04748E"/>
	<stop  offset="1" style="stop-color:#07DDE8"/>
</linearGradient>
<path class="st1" d="M26,7.9c-1.7,1.2-2.8,3.6-3,5.7c-0.1,1.1,0.1,2.1,0.5,3.3c0.6,1.7,1.5,3.2,2.3,4.8c0,0,0,0,0,0
	c-2.9-1.1-5-3.9-5-7.2c0-4,2.8-7.4,6.9-7.6c-0.3,0-0.5,0.2-0.8,0.4C26.6,7.5,26.3,7.7,26,7.9z"/>
</svg>
